<svg width="40" height="40" viewBox="0 0 40 40" fill="none" xmlns="http://www.w3.org/2000/svg">
<g clip-path="url(#clip0_211_1895)">
<path d="M36.5534 -0.000976562H3.22005C1.3791 -0.000976562 -0.113281 1.49141 -0.113281 3.33236V36.6657C-0.113281 38.5066 1.3791 39.999 3.22005 39.999H36.5534C38.3943 39.999 39.8867 38.5066 39.8867 36.6657V3.33236C39.8867 1.49141 38.3943 -0.000976562 36.5534 -0.000976562Z" stroke="white" stroke-width="1.84919" stroke-linejoin="round"/>
<path d="M19.8928 8.17969H15.8018C14.7169 8.17969 13.6763 8.61069 12.9091 9.37789C12.1419 10.1451 11.7109 11.1856 11.7109 12.2706C11.7109 13.3556 12.1419 14.3961 12.9091 15.1633C13.6763 15.9305 14.7169 16.3615 15.8018 16.3615M19.8928 8.17969V16.3615M19.8928 8.17969H23.9837C25.0686 8.17969 26.1092 8.61069 26.8764 9.37789C27.6436 10.1451 28.0746 11.1856 28.0746 12.2706C28.0746 13.3556 27.6436 14.3961 26.8764 15.1633C26.1092 15.9305 25.0686 16.3615 23.9837 16.3615H19.8928M19.8928 16.3615H15.8018M19.8928 16.3615V24.5433M15.8018 16.3615C14.7169 16.3615 13.6763 16.7925 12.9091 17.5597C12.1419 18.3269 11.7109 19.3674 11.7109 20.4524C11.7109 21.5374 12.1419 22.5779 12.9091 23.3451C13.6763 24.1123 14.7169 24.5433 15.8018 24.5433M19.8928 24.5433H15.8018M19.8928 24.5433V28.6342C19.8928 29.7192 19.4618 30.7597 18.6946 31.5269C17.9274 32.2941 16.8868 32.7251 15.8018 32.7251C14.7169 32.7251 13.6763 32.2941 12.9091 31.5269C12.1419 30.7597 11.7109 29.7192 11.7109 28.6342C11.7109 27.5493 12.1419 26.5087 12.9091 25.7415C13.6763 24.9743 14.7169 24.5433 15.8018 24.5433" stroke="white" stroke-width="2.43746" stroke-linejoin="round"/>
<path d="M19.8867 20.4537C19.8867 19.3687 20.3177 18.3282 21.0849 17.561C21.8521 16.7938 22.8927 16.3628 23.9776 16.3628C25.0626 16.3628 26.1031 16.7938 26.8703 17.561C27.6375 18.3282 28.0685 19.3687 28.0685 20.4537C28.0685 21.5387 27.6375 22.5792 26.8703 23.3464C26.1031 24.1136 25.0626 24.5446 23.9776 24.5446C22.8927 24.5446 21.8521 24.1136 21.0849 23.3464C20.3177 22.5792 19.8867 21.5387 19.8867 20.4537Z" stroke="white" stroke-width="2.43746" stroke-linejoin="round"/>
</g>
<rect x="1.38689" y="1.38689" width="37.2262" height="37.2262" rx="7.85905" stroke="white" stroke-width="2.77378"/>
<defs>
<clipPath id="clip0_211_1895">
<rect width="40" height="40" rx="9.24594" fill="white"/>
</clipPath>
</defs>
</svg>
