<svg width="40" height="40" viewBox="0 0 40 40" fill="none" xmlns="http://www.w3.org/2000/svg">
<g clip-path="url(#clip0_211_1900)">
<path fill-rule="evenodd" clip-rule="evenodd" d="M40 20C40 31.05 31.05 40 20 40C8.95 40 0 31.05 0 20C0 8.95 8.95 0 20 0C31.05 0 40 8.95 40 20ZM15.9 37.025V33.3C11.15 34.365 10.125 31.17 10.125 31.17C9.36 29.1 8.23 28.57 8.23 28.57C6.675 27.475 8.3425 27.475 8.3425 27.475C10.0675 27.5925 10.9675 29.31 10.9675 29.31C12.495 32.035 14.9675 31.2625 15.9425 30.79C16.085 29.635 16.5375 28.8375 17.0175 28.3925C13.2175 27.9775 9.2425 26.44 9.2425 19.5675C9.2425 17.615 9.92 16.0175 10.9975 14.7675C10.8275 14.325 10.2325 12.49 11.1675 10.0425C11.1675 10.0425 12.61 9.57 15.8675 11.8775C17.2592 11.4878 18.6973 11.2885 20.1425 11.285C21.585 11.285 23.0675 11.4925 24.4175 11.8775C27.6675 9.57 29.1175 10.0425 29.1175 10.0425C30.0525 12.4975 29.4575 14.3425 29.2875 14.7675C30.3925 16.01 31.0425 17.6175 31.0425 19.5675C31.0425 26.4425 27.0425 27.9425 23.2425 28.3925C23.8675 28.955 24.495 30.02 24.495 31.7175V36.9425C28.2297 35.9546 31.5326 33.7588 33.8886 30.6972C36.2447 27.6357 37.5215 23.8806 37.52 20.0175C37.52 10.3425 29.695 2.5175 20.02 2.5175C10.345 2.5175 2.52 10.3425 2.52 20.0175C2.52 28.2675 8.245 35.1925 15.92 37.0425L15.9 37.025Z" fill="white"/>
</g>
<defs>
<clipPath id="clip0_211_1900">
<rect width="40" height="40" fill="white"/>
</clipPath>
</defs>
</svg>
