<svg width="40" height="40" viewBox="0 0 40 40" fill="none" xmlns="http://www.w3.org/2000/svg">
<g clip-path="url(#clip0_211_1893)">
<path d="M7.43698 7.01341C8.68031 8.02341 9.14698 7.94674 11.4836 7.79008L33.5086 6.46841C33.9753 6.46841 33.587 6.00174 33.432 5.92508L29.772 3.28008C29.072 2.73674 28.137 2.11341 26.347 2.26841L5.02198 3.82508C4.24531 3.90174 4.08865 4.29174 4.39865 4.60174L7.43698 7.01341ZM8.75865 12.1467V35.3201C8.75865 36.5651 9.38031 37.0317 10.782 36.9534L34.987 35.5534C36.3887 35.4767 36.5453 34.6201 36.5453 33.6084V10.5901C36.5453 9.58008 36.157 9.03508 35.2987 9.11174L10.0036 10.5901C9.07031 10.6684 8.75865 11.1367 8.75865 12.1467ZM32.6537 13.3884C32.8087 14.0884 32.6537 14.7884 31.9537 14.8684L30.787 15.1017V32.2084C29.7736 32.7534 28.8403 33.0651 28.062 33.0651C26.8153 33.0651 26.5036 32.6751 25.5703 31.5101L17.942 19.5334V31.1201L20.3553 31.6667C20.3553 31.6667 20.3553 33.0667 18.4086 33.0667L13.0386 33.3767C12.8836 33.0667 13.0386 32.2884 13.5836 32.1334L14.9836 31.7451V16.4234L13.042 16.2667C12.8853 15.5667 13.2753 14.5567 14.3636 14.4784L20.1236 14.0901L28.0636 26.2217V15.4884L26.0386 15.2567C25.8836 14.4001 26.5053 13.7784 27.2836 13.7017L32.6537 13.3884ZM3.23198 1.72507L25.4153 0.0917415C28.1386 -0.141592 28.8403 0.0134082 30.552 1.25841L37.6336 6.23508C38.8003 7.09008 39.1903 7.32341 39.1903 8.25674V35.5534C39.1903 37.2634 38.5686 38.2767 36.3903 38.4301L10.627 39.9867C8.99365 40.0651 8.21365 39.8317 7.35698 38.7417L2.14198 31.9751C1.20865 30.7301 0.820312 29.7984 0.820312 28.7084V4.44508C0.820312 3.04674 1.44365 1.87841 3.23198 1.72507Z" fill="white"/>
</g>
<defs>
<clipPath id="clip0_211_1893">
<rect width="40" height="40" fill="white"/>
</clipPath>
</defs>
</svg>
