<svg width="472" height="378" viewBox="0 0 472 378" fill="none" xmlns="http://www.w3.org/2000/svg">
<path d="M66.8311 235.985C122.465 175.195 176.142 111.499 236.848 55.6676C237.848 54.7478 237.188 56.626 237.073 57.2465C235.225 67.2298 231.592 77.2341 228.409 86.7965C214.927 127.314 200.873 167.952 185.048 207.82M185.048 207.82C179.805 221.028 174.368 234.152 168.693 247.159M185.048 207.82C137.243 243.155 84.9791 274.759 30.7285 298.773C23.0593 302.167 -0.622145 310.693 7.3181 307.992C13.337 305.946 19.3385 303.848 25.3499 301.779C72.3157 285.615 119.052 268.879 165.248 250.696M185.048 207.82C188.399 205.343 191.728 202.848 195.034 200.336C228.119 175.198 261.236 146.842 286.796 113.306M168.693 247.159C168.31 248.037 167.925 248.916 167.54 249.793M168.693 247.159C167.54 248.334 166.392 249.513 165.248 250.696M168.693 247.159C187.684 227.798 207.847 209.495 227.489 190.971C231.881 186.83 244.087 171.095 251.46 169.834C255.252 169.186 254.095 181.602 254.059 183.223C253.997 186.032 253.437 191.973 258.216 190.8C262.814 189.672 270.236 185.411 273.566 183.466C281.427 178.872 289.139 174.028 296.812 169.118M167.54 249.793C161.422 263.718 155.027 277.506 148.302 291.117C134.792 318.459 118.719 343.742 100.361 368.003C92.0967 378.925 93.763 369.089 95.4316 360.707C100.595 334.767 114.975 310.83 130.881 290.115C141.507 276.277 153.113 263.251 165.248 250.696M167.54 249.793C184.574 243.068 201.534 236.144 218.405 228.978C246.979 216.84 276.139 204.533 304.221 190.379M167.54 249.793C166.776 250.095 166.012 250.396 165.248 250.696M296.812 169.118C307.272 162.425 317.659 155.609 328.25 149.14C343.029 140.113 350.064 136.089 364.706 128.179C368.501 126.13 372.333 124.151 376.166 122.173C378.758 120.835 381.429 117.19 384.072 118.421C385.801 119.227 382.154 121.72 381.137 123.335C378.525 127.485 375.467 131.73 373.821 136.399C372.955 138.857 373.56 140.957 375.872 142.034L375.9 142.047C376.354 142.258 376.864 142.495 376.476 143.212C372.925 149.783 363.178 155.957 357.834 159.525C340.748 170.931 322.719 181.056 304.221 190.379M296.812 169.118C291.85 151.269 288.29 132.324 286.796 113.306M296.812 169.118C296.955 169.631 297.098 170.142 297.243 170.652C299.034 176.971 301.306 183.765 304.221 190.379M304.221 190.379C311.877 207.75 323.968 223.882 343.436 226.912C360.101 229.505 374.682 217.11 383.677 204.573C383.709 204.528 383.742 204.482 383.775 204.435M286.796 113.306C293.411 104.627 299.519 95.6011 304.99 86.1945C317.233 65.1438 325.129 39.6979 322.098 15.1991C321.71 12.0639 321.684 2.70484 316.515 6.82968C299.179 20.6624 290.731 44.1373 287.862 65.3323C285.747 80.9593 285.527 97.1589 286.796 113.306ZM383.775 204.435C388.677 197.53 399.788 176.509 393.218 181.521C388.073 185.447 385.129 195.184 383.775 204.435ZM383.775 204.435C382.863 210.668 382.673 216.68 383.018 220.547C384.251 234.379 395.674 233.098 406.029 230.177C428.179 223.928 446.944 212.538 466.486 200.656" stroke="#1D1D1D" stroke-width="10" stroke-linecap="round"/>
</svg>
