<svg width="201" height="136" viewBox="0 0 201 136" fill="none" xmlns="http://www.w3.org/2000/svg">
<path d="M30.0536 83.2553C56.4254 61.5073 82.122 38.6297 110.372 18.8423C110.838 18.5164 110.467 19.2089 110.387 19.4397C109.113 23.1532 107.088 26.8398 105.275 30.3692C97.5925 45.3238 89.6646 60.3127 81.0325 74.9781M81.0325 74.9781C78.1728 79.8366 75.2358 84.6596 72.2048 89.4341M81.0325 74.9781C59.2184 87.3183 35.7212 98.171 11.7713 106.134C8.38561 107.259 -1.97102 110.001 1.49356 109.141C4.1198 108.489 6.74129 107.818 9.36547 107.158C29.8677 102.002 50.3025 96.6256 70.5831 90.6957M81.0325 74.9781C82.5616 74.1131 84.0824 73.2408 85.5945 72.3617C100.726 63.5645 116.032 53.5591 128.429 41.4614M72.2048 89.4341C72.0001 89.7566 71.7949 90.079 71.5892 90.4011M72.2048 89.4341C71.6626 89.853 71.122 90.2736 70.5831 90.6957M72.2048 89.4341C81.1373 82.5323 90.508 76.0507 99.6717 69.476C101.721 68.006 107.627 62.3342 110.781 62.0042C112.404 61.8345 111.297 66.4751 111.201 67.0832C111.034 68.1368 110.502 70.3574 112.564 70.0099C114.549 69.6756 117.874 68.2197 119.368 67.5539C122.894 65.9818 126.37 64.3126 129.833 62.6178M71.5892 90.4011C68.3267 95.5117 64.9549 100.566 61.4533 105.547C54.4194 115.553 46.4136 124.735 37.5012 133.49C33.4888 137.431 34.6801 133.769 35.7996 130.653C39.2637 121.012 46.492 112.302 54.1987 104.831C59.3473 99.8409 64.8662 95.1747 70.5831 90.6957M71.5892 90.4011C79.0685 88.2069 86.5267 85.9366 93.9593 83.5734C106.548 79.5708 119.392 75.5163 131.875 70.747M71.5892 90.4011C71.2539 90.4994 70.9185 90.5977 70.5831 90.6957M129.833 62.6178C134.555 60.3075 139.251 57.9498 144.016 55.7264C150.665 52.6238 153.816 51.2494 160.352 48.5636C162.045 47.8677 163.752 47.1991 165.457 46.5308C166.611 46.0788 167.914 44.7617 168.961 45.2757C169.645 45.6119 167.991 46.4775 167.484 47.0641C166.181 48.572 164.686 50.1068 163.762 51.8283C163.275 52.7345 163.424 53.5348 164.34 53.9842L164.351 53.9898C164.53 54.0777 164.732 54.1767 164.534 54.4387C162.716 56.8372 158.32 58.9664 155.9 60.2024C148.165 64.1537 140.098 67.6054 131.875 70.747M129.833 62.6178C128.647 55.8176 128.103 48.6332 128.429 41.4614M129.833 62.6178C129.867 62.813 129.902 63.0078 129.937 63.2024C130.372 65.6104 130.984 68.2062 131.875 70.747M131.875 70.747C134.215 77.42 138.477 83.7137 146.488 85.2305C153.346 86.529 160.081 82.1574 164.48 77.6241C164.496 77.6077 164.512 77.591 164.528 77.5742M128.429 41.4614C131.637 38.3306 134.65 35.0597 137.415 31.6334C143.603 23.9657 148.188 14.5626 148.144 5.30267C148.139 4.11762 148.597 0.602166 146.223 2.05073C138.261 6.9085 133.543 15.5605 131.279 23.4649C129.609 29.2927 128.706 35.3725 128.429 41.4614ZM164.528 77.5742C166.929 75.0762 172.641 67.3976 169.635 69.1522C167.281 70.5263 165.559 74.126 164.528 77.5742ZM164.528 77.5742C163.834 79.8973 163.453 82.1516 163.404 83.6103C163.228 88.8294 168.082 88.5706 172.57 87.675C182.171 85.7591 190.609 81.8466 199.398 77.7642" stroke="white" stroke-width="1.5" stroke-linecap="round"/>
</svg>
