<svg width="41" height="39" viewBox="0 0 41 39" fill="none" xmlns="http://www.w3.org/2000/svg">
<rect x="1.47597" y="1.11025" width="36.9958" height="36.9958" rx="7.02921" stroke="white" stroke-width="1.23319"/>
<path d="M10.7559 18.5753V19.8044H6.76385V18.5753H10.7559ZM7.23134 15.4604V23.1084H5.65551V15.4604H7.23134ZM11.88 15.4604V23.1084H10.3095V15.4604H11.88ZM16.513 15.4604V23.1084H14.9424V15.4604H16.513ZM18.8662 15.4604V16.6948H12.6259V15.4604H18.8662ZM20.484 15.4604H21.8182L23.7828 21.0756L25.7473 15.4604H27.0815L24.3186 23.1084H23.247L20.484 15.4604ZM19.7644 15.4604H21.0934L21.335 20.9338V23.1084H19.7644V15.4604ZM26.4722 15.4604H27.8064V23.1084H26.2306V20.9338L26.4722 15.4604ZM34.1044 21.8793V23.1084H30.2542V21.8793H34.1044ZM30.7637 15.4604V23.1084H29.1879V15.4604H30.7637Z" fill="white"/>
</svg>
