<svg width="40" height="39" viewBox="0 0 40 39" fill="none" xmlns="http://www.w3.org/2000/svg">
<rect x="0.972066" y="1.11025" width="36.9958" height="36.9958" rx="7.02921" stroke="white" stroke-width="1.23319"/>
<path d="M10.458 19.3733V22.9635C10.317 23.1336 10.0992 23.3182 9.80469 23.5173C9.51017 23.7123 9.13062 23.8803 8.66603 24.0213C8.20144 24.1623 7.63937 24.2328 6.97982 24.2328C6.39494 24.2328 5.86191 24.1374 5.38073 23.9466C4.89954 23.7517 4.48473 23.4675 4.13629 23.0942C3.792 22.7209 3.52652 22.2646 3.33985 21.7253C3.15319 21.1819 3.05986 20.5618 3.05986 19.8649V19.2987C3.05986 18.6018 3.14904 17.9816 3.32741 17.4382C3.50993 16.8948 3.76918 16.4365 4.10518 16.0631C4.44118 15.6898 4.84147 15.4057 5.30606 15.2107C5.77065 15.0157 6.28709 14.9183 6.85538 14.9183C7.64352 14.9183 8.29063 15.0468 8.7967 15.304C9.30277 15.5571 9.68854 15.9097 9.95402 16.3618C10.2236 16.8098 10.3896 17.3242 10.4518 17.9049H8.64114C8.59551 17.5979 8.5084 17.3304 8.37981 17.1022C8.25122 16.8741 8.06663 16.6957 7.82604 16.5671C7.5896 16.4385 7.28264 16.3742 6.90516 16.3742C6.59405 16.3742 6.31612 16.4385 6.07139 16.5671C5.8308 16.6916 5.62754 16.8762 5.46161 17.1209C5.29569 17.3656 5.16917 17.6685 5.08206 18.0293C4.99495 18.3902 4.9514 18.8092 4.9514 19.2862V19.8649C4.9514 20.3378 4.99702 20.7567 5.08828 21.1218C5.17954 21.4826 5.31436 21.7875 5.49272 22.0364C5.67524 22.2812 5.89924 22.4657 6.16472 22.5902C6.4302 22.7146 6.73923 22.7769 7.09182 22.7769C7.38634 22.7769 7.63108 22.752 7.82604 22.7022C8.02515 22.6524 8.18485 22.5923 8.30514 22.5217C8.42959 22.4471 8.52499 22.3766 8.59136 22.3102V20.7049H6.88649V19.3733H10.458ZM16.6802 21.7378C16.6802 21.576 16.6553 21.4308 16.6055 21.3022C16.5599 21.1695 16.4728 21.0492 16.3442 20.9413C16.2156 20.8293 16.0352 20.7194 15.8029 20.6115C15.5706 20.5037 15.2698 20.3917 14.9006 20.2755C14.49 20.1428 14.1001 19.9935 13.7309 19.8275C13.3658 19.6616 13.0423 19.4687 12.7602 19.2489C12.4823 19.0249 12.2624 18.7656 12.1007 18.4711C11.943 18.1766 11.8642 17.8344 11.8642 17.4445C11.8642 17.067 11.9472 16.7248 12.1131 16.4178C12.279 16.1067 12.5113 15.8412 12.81 15.6214C13.1087 15.3974 13.4612 15.2252 13.8678 15.1049C14.2784 14.9846 14.7285 14.9245 15.218 14.9245C15.8858 14.9245 16.4686 15.0448 16.9664 15.2854C17.4642 15.526 17.85 15.8557 18.1237 16.2747C18.4017 16.6936 18.5406 17.1728 18.5406 17.712H16.6864C16.6864 17.4465 16.6304 17.2142 16.5184 17.0151C16.4106 16.8119 16.2446 16.6522 16.0206 16.536C15.8008 16.4199 15.5229 16.3618 15.1869 16.3618C14.8633 16.3618 14.5937 16.4116 14.378 16.5111C14.1623 16.6065 14.0005 16.7372 13.8927 16.9031C13.7848 17.0649 13.7309 17.2474 13.7309 17.4507C13.7309 17.6042 13.7682 17.7431 13.8429 17.8676C13.9217 17.992 14.0378 18.1082 14.1913 18.216C14.3448 18.3239 14.5335 18.4255 14.7575 18.5209C14.9815 18.6163 15.2408 18.7096 15.5353 18.8009C16.0289 18.9502 16.4624 19.1182 16.8357 19.3049C17.2132 19.4915 17.5285 19.701 17.7815 19.9333C18.0345 20.1656 18.2254 20.429 18.3539 20.7235C18.4825 21.0181 18.5468 21.352 18.5468 21.7253C18.5468 22.1194 18.4701 22.472 18.3166 22.7831C18.1631 23.0942 17.9412 23.3576 17.6508 23.5733C17.3605 23.789 17.0141 23.9528 16.6117 24.0648C16.2094 24.1768 15.7593 24.2328 15.2615 24.2328C14.8135 24.2328 14.3718 24.1748 13.9362 24.0586C13.5007 23.9383 13.1045 23.7579 12.7478 23.5173C12.3952 23.2767 12.1131 22.9697 11.9016 22.5964C11.69 22.2231 11.5842 21.7813 11.5842 21.2711H13.4571C13.4571 21.5532 13.5007 21.7917 13.5878 21.9866C13.6749 22.1816 13.7972 22.3392 13.9549 22.4595C14.1167 22.5798 14.3075 22.6669 14.5273 22.7209C14.7513 22.7748 14.9961 22.8017 15.2615 22.8017C15.5851 22.8017 15.8506 22.7561 16.058 22.6649C16.2695 22.5736 16.4251 22.4471 16.5246 22.2853C16.6283 22.1235 16.6802 21.941 16.6802 21.7378ZM23.4997 16.5982L21.0357 24.1084H19.0508L22.417 15.0489H23.6801L23.4997 16.5982ZM25.5468 24.1084L23.0766 16.5982L22.8775 15.0489H24.153L27.5379 24.1084H25.5468ZM25.4348 20.736V22.1982H20.6499V20.736H25.4348ZM31.9058 20.8791H29.5974V19.4231H31.9058C32.2626 19.4231 32.5529 19.365 32.7769 19.2489C33.0009 19.1286 33.1648 18.9627 33.2685 18.7511C33.3722 18.5396 33.424 18.301 33.424 18.0356C33.424 17.7659 33.3722 17.515 33.2685 17.2827C33.1648 17.0504 33.0009 16.8637 32.7769 16.7227C32.5529 16.5816 32.2626 16.5111 31.9058 16.5111H30.2445V24.1084H28.3779V15.0489H31.9058C32.6152 15.0489 33.2229 15.1775 33.7289 15.4347C34.2391 15.6877 34.6291 16.0382 34.8987 16.4862C35.1683 16.9342 35.3031 17.4465 35.3031 18.0231C35.3031 18.608 35.1683 19.1141 34.8987 19.5413C34.6291 19.9686 34.2391 20.2984 33.7289 20.5307C33.2229 20.7629 32.6152 20.8791 31.9058 20.8791Z" fill="white"/>
</svg>
