<svg width="41" height="39" viewBox="0 0 41 39" fill="none" xmlns="http://www.w3.org/2000/svg">
<rect x="1.35097" y="1.11025" width="36.9958" height="36.9958" rx="7.02921" stroke="white" stroke-width="1.23319"/>
<path d="M7.3112 20.4551V15.5946H8.75153V20.4551C8.75153 20.924 8.64876 21.327 8.44323 21.6642C8.2377 21.9982 7.9567 22.2551 7.60023 22.435C7.24697 22.6148 6.84875 22.7047 6.40557 22.7047C5.94633 22.7047 5.54009 22.6277 5.18683 22.4735C4.83357 22.3194 4.55578 22.0833 4.35346 21.7654C4.15114 21.4443 4.04998 21.038 4.04998 20.5467H5.49994C5.49994 20.8036 5.53527 21.0075 5.60592 21.1584C5.67978 21.3094 5.78416 21.417 5.91904 21.4812C6.05392 21.5454 6.21609 21.5775 6.40557 21.5775C6.58862 21.5775 6.74759 21.5342 6.88247 21.4475C7.01735 21.3608 7.12172 21.2339 7.19558 21.0669C7.27266 20.8999 7.3112 20.696 7.3112 20.4551ZM13.7951 21.5679L15.6931 23.0708L14.7826 23.8609L12.9136 22.3579L13.7951 21.5679ZM15.7412 18.9377V19.2701C15.7412 19.8032 15.669 20.2817 15.5245 20.7056C15.3832 21.1295 15.1792 21.4908 14.9127 21.7895C14.6461 22.0849 14.3314 22.3113 13.9685 22.4687C13.6056 22.6261 13.2026 22.7047 12.7594 22.7047C12.3194 22.7047 11.9164 22.6261 11.5503 22.4687C11.1842 22.3113 10.8679 22.0849 10.6013 21.7895C10.3348 21.4908 10.1276 21.1295 9.9799 20.7056C9.83539 20.2817 9.76313 19.8032 9.76313 19.2701V18.9377C9.76313 18.4014 9.83539 17.9229 9.9799 17.5022C10.1276 17.0783 10.3332 16.717 10.5965 16.4183C10.8598 16.1197 11.1746 15.8917 11.5407 15.7343C11.9068 15.5769 12.3098 15.4983 12.7498 15.4983C13.193 15.4983 13.596 15.5769 13.9589 15.7343C14.325 15.8917 14.6413 16.1197 14.9079 16.4183C15.1744 16.717 15.3799 17.0783 15.5245 17.5022C15.669 17.9229 15.7412 18.4014 15.7412 18.9377ZM14.2816 19.2701V18.9281C14.2816 18.5556 14.2463 18.228 14.1757 17.9454C14.1082 17.6628 14.0087 17.4251 13.877 17.2324C13.7485 17.0398 13.5896 16.8952 13.4001 16.7989C13.2106 16.6993 12.9938 16.6496 12.7498 16.6496C12.5057 16.6496 12.2889 16.6993 12.0995 16.7989C11.91 16.8952 11.751 17.0398 11.6226 17.2324C11.4941 17.4251 11.3962 17.6628 11.3287 17.9454C11.2613 18.228 11.2276 18.5556 11.2276 18.9281V19.2701C11.2276 19.6394 11.2613 19.967 11.3287 20.2528C11.3962 20.5354 11.4941 20.7747 11.6226 20.9706C11.7542 21.1632 11.9148 21.3094 12.1043 21.4089C12.297 21.5085 12.5153 21.5583 12.7594 21.5583C13.0035 21.5583 13.2186 21.5085 13.4049 21.4089C13.5944 21.3094 13.7533 21.1632 13.8818 20.9706C14.0135 20.7747 14.113 20.5354 14.1805 20.2528C14.2479 19.967 14.2816 19.6394 14.2816 19.2701ZM19.7828 21.3608V17.3962H21.1702V22.6084H19.8647L19.7828 21.3608ZM19.937 20.2913L20.3464 20.2817C20.3464 20.6285 20.3063 20.9513 20.226 21.25C20.1457 21.5454 20.0253 21.8023 19.8647 22.0207C19.7042 22.2359 19.5018 22.4045 19.2578 22.5265C19.0137 22.6453 18.7263 22.7047 18.3955 22.7047C18.1418 22.7047 17.9073 22.6694 17.6922 22.5988C17.4802 22.5249 17.2972 22.4109 17.143 22.2567C16.9921 22.0994 16.8733 21.8987 16.7866 21.6546C16.7031 21.4073 16.6613 21.1103 16.6613 20.7634V17.3962H18.0487V20.7731C18.0487 20.9272 18.0663 21.0573 18.1016 21.1632C18.1402 21.2692 18.1932 21.3559 18.2606 21.4234C18.328 21.4908 18.4067 21.539 18.4966 21.5679C18.5898 21.5968 18.6925 21.6112 18.8049 21.6112C19.0908 21.6112 19.3156 21.5534 19.4794 21.4378C19.6463 21.3222 19.7636 21.1649 19.831 20.9657C19.9017 20.7634 19.937 20.5386 19.937 20.2913ZM24.6289 22.7047C24.2243 22.7047 23.8614 22.6405 23.5402 22.5121C23.2191 22.3804 22.9461 22.1989 22.7213 21.9677C22.4997 21.7365 22.3295 21.4683 22.2107 21.1632C22.0919 20.855 22.0324 20.5274 22.0324 20.1805V19.9879C22.0324 19.5929 22.0886 19.2316 22.201 18.904C22.3134 18.5764 22.474 18.2922 22.6828 18.0514C22.8947 17.8105 23.1516 17.6258 23.4535 17.4974C23.7554 17.3657 24.0958 17.2999 24.4747 17.2999C24.8441 17.2999 25.1716 17.3609 25.4574 17.4829C25.7433 17.605 25.9825 17.7784 26.1752 18.0032C26.3711 18.228 26.5188 18.4978 26.6184 18.8125C26.7179 19.124 26.7677 19.4708 26.7677 19.853V20.431H22.625V19.5061H25.4045V19.4002C25.4045 19.2075 25.3691 19.0357 25.2985 18.8847C25.231 18.7306 25.1283 18.6085 24.9902 18.5186C24.8521 18.4287 24.6755 18.3837 24.4603 18.3837C24.2772 18.3837 24.1199 18.4239 23.9882 18.5042C23.8565 18.5845 23.749 18.6969 23.6655 18.8414C23.5852 18.9859 23.5242 19.1561 23.4824 19.352C23.4439 19.5447 23.4246 19.7566 23.4246 19.9879V20.1805C23.4246 20.3893 23.4535 20.582 23.5113 20.7586C23.5723 20.9352 23.6574 21.0878 23.7666 21.2162C23.879 21.3447 24.0139 21.4443 24.1713 21.5149C24.3318 21.5856 24.5133 21.6209 24.7156 21.6209C24.9661 21.6209 25.1989 21.5727 25.4141 21.4764C25.6325 21.3768 25.8203 21.2275 25.9777 21.0284L26.6521 21.7606C26.5429 21.9179 26.3936 22.0689 26.2041 22.2134C26.0178 22.3579 25.793 22.4767 25.5297 22.5699C25.2664 22.6598 24.9661 22.7047 24.6289 22.7047ZM28.9451 18.5331V22.6084H27.5577V17.3962H28.8632L28.9451 18.5331ZM30.5155 17.3625L30.4914 18.6487C30.4239 18.6391 30.3421 18.631 30.2457 18.6246C30.1526 18.615 30.0675 18.6102 29.9904 18.6102C29.7945 18.6102 29.6243 18.6358 29.4798 18.6872C29.3385 18.7354 29.2197 18.8077 29.1233 18.904C29.0302 19.0003 28.9595 19.1176 28.9114 19.2557C28.8664 19.3937 28.8407 19.5511 28.8343 19.7277L28.5549 19.641C28.5549 19.3038 28.5886 18.9939 28.656 18.7113C28.7235 18.4255 28.8214 18.1766 28.9499 17.9647C29.0816 17.7527 29.2421 17.5889 29.4316 17.4733C29.6211 17.3577 29.8379 17.2999 30.0819 17.2999C30.159 17.2999 30.2377 17.3063 30.318 17.3192C30.3983 17.3288 30.4641 17.3432 30.5155 17.3625ZM32.8036 22.0207L34.1861 17.3962H35.6747L33.5792 23.3936C33.5342 23.5253 33.4732 23.6666 33.3961 23.8175C33.3223 23.9684 33.2211 24.1114 33.0927 24.2462C32.9674 24.3843 32.8084 24.4967 32.6158 24.5834C32.4263 24.6701 32.1935 24.7135 31.9173 24.7135C31.7856 24.7135 31.678 24.7055 31.5945 24.6894C31.511 24.6734 31.4115 24.6509 31.2959 24.622V23.6056C31.3312 23.6056 31.3681 23.6056 31.4066 23.6056C31.4452 23.6088 31.4821 23.6104 31.5174 23.6104C31.7005 23.6104 31.8498 23.5895 31.9654 23.5477C32.081 23.506 32.1742 23.4418 32.2448 23.3551C32.3155 23.2716 32.3717 23.1624 32.4134 23.0275L32.8036 22.0207ZM32.2256 17.3962L33.3576 21.1729L33.5551 22.6421L32.6109 22.7433L30.7371 17.3962H32.2256Z" fill="white"/>
</svg>
