<svg width="40" height="39" viewBox="0 0 40 39" fill="none" xmlns="http://www.w3.org/2000/svg">
<rect x="0.725972" y="1.11025" width="36.9958" height="36.9958" rx="7.02921" stroke="white" stroke-width="1.23319"/>
<path d="M12.1964 21.3271V15.0489H14.0568V21.3271C14.0568 21.9327 13.9241 22.4533 13.6586 22.8889C13.3931 23.3203 13.0302 23.6521 12.5697 23.8844C12.1134 24.1167 11.5991 24.2328 11.0266 24.2328C10.4334 24.2328 9.90871 24.1333 9.45242 23.9342C8.99613 23.7351 8.63732 23.4302 8.37598 23.0195C8.11465 22.6047 7.98399 22.08 7.98399 21.4453H9.85686C9.85686 21.7772 9.90249 22.0406 9.99375 22.2355C10.0892 22.4305 10.224 22.5694 10.3982 22.6524C10.5724 22.7354 10.7819 22.7769 11.0266 22.7769C11.2631 22.7769 11.4684 22.7209 11.6426 22.6089C11.8168 22.4969 11.9517 22.333 12.0471 22.1173C12.1466 21.9016 12.1964 21.6382 12.1964 21.3271ZM20.3661 21.7378C20.3661 21.576 20.3412 21.4308 20.2914 21.3022C20.2458 21.1695 20.1587 21.0492 20.0301 20.9413C19.9015 20.8293 19.7211 20.7194 19.4888 20.6115C19.2565 20.5037 18.9557 20.3917 18.5866 20.2755C18.1759 20.1428 17.786 19.9935 17.4168 19.8275C17.0518 19.6616 16.7282 19.4687 16.4461 19.2489C16.1682 19.0249 15.9484 18.7656 15.7866 18.4711C15.629 18.1766 15.5501 17.8344 15.5501 17.4445C15.5501 17.067 15.6331 16.7248 15.799 16.4178C15.965 16.1067 16.1973 15.8412 16.4959 15.6214C16.7946 15.3974 17.1472 15.2252 17.5537 15.1049C17.9643 14.9846 18.4144 14.9245 18.9039 14.9245C19.5717 14.9245 20.1546 15.0448 20.6523 15.2854C21.1501 15.526 21.5359 15.8557 21.8096 16.2747C22.0876 16.6936 22.2265 17.1728 22.2265 17.712H20.3723C20.3723 17.4465 20.3163 17.2142 20.2043 17.0151C20.0965 16.8119 19.9306 16.6522 19.7066 16.536C19.4867 16.4199 19.2088 16.3618 18.8728 16.3618C18.5492 16.3618 18.2796 16.4116 18.0639 16.5111C17.8482 16.6065 17.6864 16.7372 17.5786 16.9031C17.4707 17.0649 17.4168 17.2474 17.4168 17.4507C17.4168 17.6042 17.4541 17.7431 17.5288 17.8676C17.6076 17.992 17.7238 18.1082 17.8772 18.216C18.0307 18.3239 18.2195 18.4255 18.4435 18.5209C18.6675 18.6163 18.9267 18.7096 19.2212 18.8009C19.7149 18.9502 20.1483 19.1182 20.5217 19.3049C20.8991 19.4915 21.2144 19.701 21.4674 19.9333C21.7205 20.1656 21.9113 20.429 22.0399 20.7235C22.1685 21.0181 22.2328 21.352 22.2328 21.7253C22.2328 22.1194 22.156 22.472 22.0025 22.7831C21.8491 23.0942 21.6271 23.3576 21.3368 23.5733C21.0464 23.789 20.7 23.9528 20.2977 24.0648C19.8953 24.1768 19.4452 24.2328 18.9474 24.2328C18.4995 24.2328 18.0577 24.1748 17.6221 24.0586C17.1866 23.9383 16.7904 23.7579 16.4337 23.5173C16.0811 23.2767 15.799 22.9697 15.5875 22.5964C15.3759 22.2231 15.2701 21.7813 15.2701 21.2711H17.143C17.143 21.5532 17.1866 21.7917 17.2737 21.9866C17.3608 22.1816 17.4832 22.3392 17.6408 22.4595C17.8026 22.5798 17.9934 22.6669 18.2132 22.7209C18.4372 22.7748 18.682 22.8017 18.9474 22.8017C19.271 22.8017 19.5365 22.7561 19.7439 22.6649C19.9554 22.5736 20.111 22.4471 20.2106 22.2853C20.3143 22.1235 20.3661 21.941 20.3661 21.7378ZM28.2185 21.7378C28.2185 21.576 28.1936 21.4308 28.1438 21.3022C28.0982 21.1695 28.0111 21.0492 27.8825 20.9413C27.7539 20.8293 27.5735 20.7194 27.3412 20.6115C27.1089 20.5037 26.8081 20.3917 26.4389 20.2755C26.0283 20.1428 25.6384 19.9935 25.2692 19.8275C24.9041 19.6616 24.5806 19.4687 24.2985 19.2489C24.0206 19.0249 23.8007 18.7656 23.639 18.4711C23.4813 18.1766 23.4025 17.8344 23.4025 17.4445C23.4025 17.067 23.4855 16.7248 23.6514 16.4178C23.8173 16.1067 24.0496 15.8412 24.3483 15.6214C24.647 15.3974 24.9995 15.2252 25.4061 15.1049C25.8167 14.9846 26.2668 14.9245 26.7563 14.9245C27.4241 14.9245 28.0069 15.0448 28.5047 15.2854C29.0025 15.526 29.3882 15.8557 29.662 16.2747C29.9399 16.6936 30.0789 17.1728 30.0789 17.712H28.2247C28.2247 17.4465 28.1687 17.2142 28.0567 17.0151C27.9489 16.8119 27.7829 16.6522 27.5589 16.536C27.3391 16.4199 27.0612 16.3618 26.7252 16.3618C26.4016 16.3618 26.132 16.4116 25.9163 16.5111C25.7006 16.6065 25.5388 16.7372 25.4309 16.9031C25.3231 17.0649 25.2692 17.2474 25.2692 17.4507C25.2692 17.6042 25.3065 17.7431 25.3812 17.8676C25.46 17.992 25.5761 18.1082 25.7296 18.216C25.8831 18.3239 26.0718 18.4255 26.2958 18.5209C26.5198 18.6163 26.7791 18.7096 27.0736 18.8009C27.5672 18.9502 28.0007 19.1182 28.374 19.3049C28.7515 19.4915 29.0668 19.701 29.3198 19.9333C29.5728 20.1656 29.7637 20.429 29.8922 20.7235C30.0208 21.0181 30.0851 21.352 30.0851 21.7253C30.0851 22.1194 30.0084 22.472 29.8549 22.7831C29.7014 23.0942 29.4795 23.3576 29.1891 23.5733C28.8988 23.789 28.5524 23.9528 28.15 24.0648C27.7477 24.1768 27.2976 24.2328 26.7998 24.2328C26.3518 24.2328 25.9101 24.1748 25.4745 24.0586C25.039 23.9383 24.6428 23.7579 24.2861 23.5173C23.9335 23.2767 23.6514 22.9697 23.4399 22.5964C23.2283 22.2231 23.1225 21.7813 23.1225 21.2711H24.9954C24.9954 21.5532 25.039 21.7917 25.1261 21.9866C25.2132 22.1816 25.3355 22.3392 25.4932 22.4595C25.6549 22.5798 25.8458 22.6669 26.0656 22.7209C26.2896 22.7748 26.5343 22.8017 26.7998 22.8017C27.1234 22.8017 27.3889 22.7561 27.5963 22.6649C27.8078 22.5736 27.9634 22.4471 28.0629 22.2853C28.1666 22.1235 28.2185 21.941 28.2185 21.7378Z" fill="white"/>
</svg>
