<svg width="40" height="39" viewBox="0 0 40 39" fill="none" xmlns="http://www.w3.org/2000/svg">
<rect x="1.10097" y="1.11025" width="36.9958" height="36.9958" rx="7.02921" stroke="white" stroke-width="1.23319"/>
<path d="M13.158 21.1031H15.0185C14.9811 21.7129 14.8131 22.2542 14.5145 22.7271C14.22 23.2 13.8072 23.5691 13.2763 23.8346C12.7495 24.1001 12.1148 24.2328 11.3723 24.2328C10.7916 24.2328 10.271 24.1333 9.81052 23.9342C9.35008 23.7309 8.95601 23.4406 8.62831 23.0631C8.30476 22.6856 8.05794 22.2293 7.88787 21.6942C7.7178 21.1591 7.63276 20.5597 7.63276 19.896V19.2676C7.63276 18.6039 7.71987 18.0045 7.89409 17.4693C8.07246 16.9301 8.3255 16.4717 8.6532 16.0942C8.98505 15.7168 9.38119 15.4264 9.84163 15.2231C10.3021 15.0199 10.8164 14.9183 11.3847 14.9183C12.1397 14.9183 12.7764 15.0551 13.2949 15.3289C13.8176 15.6027 14.222 15.9802 14.5083 16.4614C14.7986 16.9425 14.9728 17.4901 15.0309 18.104H13.1643C13.1435 17.739 13.0709 17.4299 12.9465 17.1769C12.8221 16.9197 12.6333 16.7268 12.3803 16.5982C12.1314 16.4655 11.7995 16.3991 11.3847 16.3991C11.0736 16.3991 10.8019 16.4572 10.5696 16.5734C10.3373 16.6895 10.1424 16.8658 9.98474 17.1022C9.82711 17.3387 9.70889 17.6373 9.63008 17.9982C9.55541 18.355 9.51808 18.7739 9.51808 19.2551V19.896C9.51808 20.3647 9.55334 20.7775 9.62386 21.1342C9.69437 21.4868 9.80223 21.7855 9.94741 22.0302C10.0967 22.2708 10.2876 22.4533 10.5198 22.5777C10.7563 22.698 11.0404 22.7582 11.3723 22.7582C11.7622 22.7582 12.0837 22.696 12.3367 22.5715C12.5898 22.4471 12.7826 22.2625 12.9154 22.0177C13.0523 21.773 13.1332 21.4681 13.158 21.1031ZM20.9606 21.7378C20.9606 21.576 20.9358 21.4308 20.886 21.3022C20.8404 21.1695 20.7532 21.0492 20.6247 20.9413C20.4961 20.8293 20.3156 20.7194 20.0833 20.6115C19.851 20.5037 19.5503 20.3917 19.1811 20.2755C18.7704 20.1428 18.3805 19.9935 18.0113 19.8275C17.6463 19.6616 17.3228 19.4687 17.0407 19.2489C16.7628 19.0249 16.5429 18.7656 16.3811 18.4711C16.2235 18.1766 16.1447 17.8344 16.1447 17.4445C16.1447 17.067 16.2277 16.7248 16.3936 16.4178C16.5595 16.1067 16.7918 15.8412 17.0905 15.6214C17.3891 15.3974 17.7417 15.2252 18.1482 15.1049C18.5589 14.9846 19.009 14.9245 19.4984 14.9245C20.1663 14.9245 20.7491 15.0448 21.2469 15.2854C21.7446 15.526 22.1304 15.8557 22.4042 16.2747C22.6821 16.6936 22.8211 17.1728 22.8211 17.712H20.9669C20.9669 17.4465 20.9109 17.2142 20.7989 17.0151C20.691 16.8119 20.5251 16.6522 20.3011 16.536C20.0812 16.4199 19.8033 16.3618 19.4673 16.3618C19.1438 16.3618 18.8741 16.4116 18.6584 16.5111C18.4427 16.6065 18.281 16.7372 18.1731 16.9031C18.0653 17.0649 18.0113 17.2474 18.0113 17.4507C18.0113 17.6042 18.0487 17.7431 18.1233 17.8676C18.2022 17.992 18.3183 18.1082 18.4718 18.216C18.6253 18.3239 18.814 18.4255 19.038 18.5209C19.262 18.6163 19.5213 18.7096 19.8158 18.8009C20.3094 18.9502 20.7429 19.1182 21.1162 19.3049C21.4937 19.4915 21.8089 19.701 22.062 19.9333C22.315 20.1656 22.5058 20.429 22.6344 20.7235C22.763 21.0181 22.8273 21.352 22.8273 21.7253C22.8273 22.1194 22.7506 22.472 22.5971 22.7831C22.4436 23.0942 22.2217 23.3576 21.9313 23.5733C21.6409 23.789 21.2946 23.9528 20.8922 24.0648C20.4898 24.1768 20.0398 24.2328 19.542 24.2328C19.094 24.2328 18.6522 24.1748 18.2167 24.0586C17.7811 23.9383 17.385 23.7579 17.0282 23.5173C16.6756 23.2767 16.3936 22.9697 16.182 22.5964C15.9705 22.2231 15.8647 21.7813 15.8647 21.2711H17.7376C17.7376 21.5532 17.7811 21.7917 17.8682 21.9866C17.9553 22.1816 18.0777 22.3392 18.2353 22.4595C18.3971 22.5798 18.5879 22.6669 18.8078 22.7209C19.0318 22.7748 19.2765 22.8017 19.542 22.8017C19.8655 22.8017 20.131 22.7561 20.3384 22.6649C20.55 22.5736 20.7055 22.4471 20.8051 22.2853C20.9088 22.1235 20.9606 21.941 20.9606 21.7378ZM28.813 21.7378C28.813 21.576 28.7881 21.4308 28.7384 21.3022C28.6927 21.1695 28.6056 21.0492 28.477 20.9413C28.3484 20.8293 28.168 20.7194 27.9357 20.6115C27.7034 20.5037 27.4027 20.3917 27.0335 20.2755C26.6228 20.1428 26.2329 19.9935 25.8637 19.8275C25.4987 19.6616 25.1751 19.4687 24.8931 19.2489C24.6151 19.0249 24.3953 18.7656 24.2335 18.4711C24.0759 18.1766 23.9971 17.8344 23.9971 17.4445C23.9971 17.067 24.08 16.7248 24.246 16.4178C24.4119 16.1067 24.6442 15.8412 24.9428 15.6214C25.2415 15.3974 25.5941 15.2252 26.0006 15.1049C26.4113 14.9846 26.8613 14.9245 27.3508 14.9245C28.0187 14.9245 28.6015 15.0448 29.0992 15.2854C29.597 15.526 29.9828 15.8557 30.2566 16.2747C30.5345 16.6936 30.6735 17.1728 30.6735 17.712H28.8192C28.8192 17.4465 28.7632 17.2142 28.6513 17.0151C28.5434 16.8119 28.3775 16.6522 28.1535 16.536C27.9336 16.4199 27.6557 16.3618 27.3197 16.3618C26.9962 16.3618 26.7265 16.4116 26.5108 16.5111C26.2951 16.6065 26.1333 16.7372 26.0255 16.9031C25.9176 17.0649 25.8637 17.2474 25.8637 17.4507C25.8637 17.6042 25.9011 17.7431 25.9757 17.8676C26.0545 17.992 26.1707 18.1082 26.3242 18.216C26.4776 18.3239 26.6664 18.4255 26.8904 18.5209C27.1144 18.6163 27.3736 18.7096 27.6681 18.8009C28.1618 18.9502 28.5953 19.1182 28.9686 19.3049C29.3461 19.4915 29.6613 19.701 29.9144 19.9333C30.1674 20.1656 30.3582 20.429 30.4868 20.7235C30.6154 21.0181 30.6797 21.352 30.6797 21.7253C30.6797 22.1194 30.6029 22.472 30.4495 22.7831C30.296 23.0942 30.0741 23.3576 29.7837 23.5733C29.4933 23.789 29.147 23.9528 28.7446 24.0648C28.3422 24.1768 27.8921 24.2328 27.3944 24.2328C26.9464 24.2328 26.5046 24.1748 26.0691 24.0586C25.6335 23.9383 25.2374 23.7579 24.8806 23.5173C24.528 23.2767 24.246 22.9697 24.0344 22.5964C23.8228 22.2231 23.7171 21.7813 23.7171 21.2711H25.5899C25.5899 21.5532 25.6335 21.7917 25.7206 21.9866C25.8077 22.1816 25.9301 22.3392 26.0877 22.4595C26.2495 22.5798 26.4403 22.6669 26.6602 22.7209C26.8842 22.7748 27.1289 22.8017 27.3944 22.8017C27.7179 22.8017 27.9834 22.7561 28.1908 22.6649C28.4024 22.5736 28.5579 22.4471 28.6575 22.2853C28.7612 22.1235 28.813 21.941 28.813 21.7378Z" fill="white"/>
</svg>
